<svg width="60" height="15" viewBox="0 0 60 15" fill="none" xmlns="http://www.w3.org/2000/svg">
<path d="M2.59191 5.62991C2.92516 5.09577 3.35715 4.67695 3.88787 4.37347C4.43094 4.06998 5.04806 3.91823 5.73924 3.91823V6.59501H5.05423C4.23963 6.59501 3.62251 6.78317 3.20287 7.1595C2.79556 7.53583 2.59191 8.19137 2.59191 9.12611V14.1519H0V4.06391H2.59191V5.62991Z" fill="#1F8459"/>
<path d="M17.0196 8.88939C17.0196 9.25358 16.9949 9.58135 16.9455 9.8727H9.44747C9.50918 10.6011 9.76837 11.1716 10.225 11.5844C10.6817 11.9971 11.2433 12.2035 11.9098 12.2035C12.8725 12.2035 13.5575 11.7968 13.9648 10.9835H16.7604C16.4642 11.9546 15.8964 12.7559 15.0571 13.3871C14.2178 14.0062 13.1872 14.3158 11.9653 14.3158C10.9779 14.3158 10.0893 14.1033 9.29936 13.6785C8.52179 13.2414 7.91083 12.6284 7.46651 11.8393C7.03452 11.0502 6.81853 10.1398 6.81853 9.1079C6.81853 8.0639 7.03452 7.14736 7.46651 6.35829C7.89849 5.56921 8.50327 4.96223 9.28085 4.53735C10.0584 4.11246 10.9532 3.90002 11.9653 3.90002C12.9404 3.90002 13.8105 4.10639 14.5758 4.51914C15.3533 4.93189 15.9519 5.52066 16.3716 6.28545C16.8036 7.0381 17.0196 7.90609 17.0196 8.88939ZM14.3351 8.16102C14.3227 7.50548 14.0821 6.98348 13.613 6.59501C13.144 6.1944 12.5701 5.9941 11.8913 5.9941C11.2495 5.9941 10.7064 6.18833 10.2621 6.5768C9.83009 6.95313 9.56472 7.4812 9.46598 8.16102H14.3351Z" fill="#1F8459"/>
<path d="M23.6139 6.15798H21.8181V14.1519H19.1891V6.15798H18.0228V4.06391H19.1891V3.55404C19.1891 2.3158 19.5471 1.40534 20.2629 0.822635C20.9788 0.239935 22.0588 -0.0332056 23.5028 0.00321347V2.15192C22.8734 2.13978 22.4352 2.24297 22.1883 2.46148C21.9415 2.67999 21.8181 3.07453 21.8181 3.64509V4.06391H23.6139V6.15798Z" fill="#1F8459"/>
<path d="M34.9762 4.06391V14.1519H32.3658V12.8772C32.0326 13.3143 31.5944 13.6603 31.0513 13.9152C30.5206 14.158 29.9405 14.2794 29.3111 14.2794C28.5088 14.2794 27.7991 14.1155 27.182 13.7877C26.5649 13.4478 26.0773 12.9562 25.7194 12.3128C25.3738 11.6572 25.201 10.8803 25.201 9.98195V4.06391H27.7929V9.61777C27.7929 10.419 27.9966 11.0381 28.4039 11.4751C28.8112 11.9 29.3666 12.1125 30.0701 12.1125C30.786 12.1125 31.3476 11.9 31.7549 11.4751C32.1622 11.0381 32.3658 10.419 32.3658 9.61777V4.06391H34.9762Z" fill="#1F8459"/>
<path d="M43.2173 3.91823C44.4392 3.91823 45.4266 4.30063 46.1795 5.06542C46.9324 5.81808 47.3088 6.87422 47.3088 8.23385V14.1519H44.7169V8.57983C44.7169 7.77862 44.5132 7.16557 44.1059 6.74068C43.6986 6.30366 43.1432 6.08515 42.4397 6.08515C41.7238 6.08515 41.1561 6.30366 40.7364 6.74068C40.3291 7.16557 40.1255 7.77862 40.1255 8.57983V14.1519H37.5336V4.06391H40.1255V5.32035C40.4711 4.88333 40.9092 4.54342 41.44 4.30063C41.983 4.0457 42.5755 3.91823 43.2173 3.91823Z" fill="#1F8459"/>
<path d="M49.1071 9.07149C49.1071 8.05176 49.3107 7.14736 49.718 6.35829C50.1377 5.56921 50.7054 4.96223 51.4213 4.53735C52.1372 4.11246 52.9332 3.90002 53.8096 3.90002C54.476 3.90002 55.1117 4.0457 55.7165 4.33705C56.3212 4.61626 56.8026 4.99258 57.1605 5.46603V0.676961H59.7895V14.1519H57.1605V12.6587C56.8396 13.1565 56.3891 13.5571 55.809 13.8606C55.2289 14.164 54.5563 14.3158 53.791 14.3158C52.9271 14.3158 52.1372 14.0973 51.4213 13.6603C50.7054 13.2232 50.1377 12.6102 49.718 11.8211C49.3107 11.0199 49.1071 10.1034 49.1071 9.07149ZM57.179 9.1079C57.179 8.48879 57.0556 7.96071 56.8088 7.52369C56.5619 7.07452 56.2287 6.73461 55.809 6.50396C55.3894 6.26117 54.9389 6.13977 54.4575 6.13977C53.9762 6.13977 53.5319 6.2551 53.1245 6.48575C52.7173 6.71641 52.384 7.05631 52.1248 7.50548C51.878 7.9425 51.7545 8.46451 51.7545 9.07149C51.7545 9.67846 51.878 10.2126 52.1248 10.6739C52.384 11.1231 52.7173 11.4691 53.1245 11.7118C53.5442 11.9546 53.9885 12.076 54.4575 12.076C54.9389 12.076 55.3894 11.9607 55.809 11.7301C56.2287 11.4873 56.5619 11.1474 56.8088 10.7103C57.0556 10.2612 57.179 9.72702 57.179 9.1079Z" fill="#1F8459"/>
</svg>
